<?xml version="1.0" encoding="utf-8"?>
<!-- Generator: Adobe Illustrator 26.4.0, SVG Export Plug-In . SVG Version: 6.00 Build 0)  -->
<svg version="1.1" xmlns="http://www.w3.org/2000/svg" xmlns:xlink="http://www.w3.org/1999/xlink" x="0px" y="0px"
	 viewBox="0 0 612 502.2" style="enable-background:new 0 0 612 502.2;" xml:space="preserve">
<style type="text/css">
	.st0{fill:#C6C6C6;}
	.st1{fill:#FFFFFF;stroke:#FFFFFF;stroke-width:5.3703;stroke-linecap:round;stroke-miterlimit:10;}
</style>
<g id="Layer_1">
	<ellipse class="st0" cx="283.5" cy="422.2" rx="259" ry="80"/>
	<path id="bird" d="M210.3,0C104.4,0.8-12.3,85.3,1.1,211.1c4.3,40.4,18.5,63.7,52.2,79c36.3,16.5,57,54.6,50.4,113
		c-9.9,4.9-17.4,11-19.1,20c7.5-0.2,14.9-0.3,22.6,4.3c20.3,12.4,31.3,27.4,43,51.7c1.7,3.6,8.2,2.8,8.3-3.1
		c0.2-8.5-1.9-17.5-5.2-26.9c-3-8.3,3.1-8,6.9-6.1c6.4,3.1,16.3,9.4,30.4,13.1c5.4,1.4,6-3.9,5.2-7c-1.9-7.5-11-10.9-24.5-19.2
		c-4.8-3-0.9-9.7,5.2-8.4l20.2,2.4c3.4,0.8,4.6-6.1,0.9-7.9c-14.2-6.8-28.9-10.1-53.9-7.8c-11.6-29.3-29.8-61.6-15.7-81.7
		c12.6-17.9,31.2-20.7,39.1,43.5c-5,3.1-11.2,5-11.3,13c7.2-2.8,11.2-1.4,14.8,0c17.9,7,35.5,21.8,53,37.3c3.7,3.3,8.4-1.7,7-6
		c-2.1-6.5-8.1-10.7-14.8-20c-3.2-4.5,5-7,10.9-6.9c13.8,0.4,22.9,8.3,35.2,11.2c4.5,1.1,9.7-2,6.9-6.9c-3.5-6.1-13-9.1-19.2-13.4
		c-4.4-3-3-7.1,2.7-6.6c3.9,0.4,8.5,2.3,13.9,1.8c9.9-0.9,7.7-7.2-0.9-9.6c-19-5.3-39.9-6.3-61.7-5.2c-43.8-8.4-31.6-84.9,0-90.4
		c29.6-5.1,63-13.3,99.9-32.2c32.7-5.4,64.8-12.4,92.9-33.9c48.1-14.5,111.9,16.1,204.2,149.7c3.9,5.7,15.8,9.9,9.5-6.4
		c-15.9-41.1-68.2-93.3-92.1-132.1c-24.6-39.8-14.3-61.2-40-91.2c-21.3-25-47.5-25.8-77.3-17.4c-23.5,6.6-39.2-7.1-53-31.3
		C318.4,22.2,265.8-0.4,210.3,0z M445.7,137.7c6.1,0,11.1,4.9,11.1,11c0,6.1-5,11.1-11.1,11.1s-11-5-11-11.1
		C434.7,142.6,439.6,137.7,445.7,137.7z"/>
	<circle cx="445.8" cy="148.8" r="11.3"/>
</g>
<g id="Livello_2">
	<g>
		<line class="st1" x1="424.8" y1="147.5" x2="444.5" y2="127.8"/>
		<line class="st1" x1="444.5" y1="147.5" x2="424.8" y2="127.8"/>
	</g>
</g>
</svg>
