<?xml version="1.0" encoding="UTF-8"?> <!--Generator: Apple Native CoreSVG 175.5--> <!DOCTYPE svg PUBLIC "-//W3C//DTD SVG 1.1//EN"        "http://www.w3.org/Graphics/SVG/1.1/DTD/svg11.dtd"> <svg version="1.1" xmlns="http://www.w3.org/2000/svg" xmlns:xlink="http://www.w3.org/1999/xlink" width="14.9414" height="14.9487">  <g>   <rect height="14.9487" opacity="0" width="14.9414" x="0" y="0"/>   <path d="M7.4707 14.9414C11.5576 14.9414 14.9414 11.5503 14.9414 7.4707C14.9414 3.38379 11.5503 0 7.46338 0C3.38379 0 0 3.38379 0 7.4707C0 11.5503 3.39111 14.9414 7.4707 14.9414Z" fill="#32d74b"/>   <path d="M7.46338 13.8281C5.78613 13.8281 4.08691 13.1396 2.96631 11.9458C3.75732 10.7007 5.47852 9.96826 7.46338 9.96826C9.43359 9.96826 11.1694 10.686 11.9678 11.9458C10.8398 13.1396 9.14795 13.8281 7.46338 13.8281ZM7.46338 8.72314C6.05713 8.7085 4.95117 7.53662 4.95117 5.96191C4.94385 4.48242 6.06445 3.25195 7.46338 3.25195C8.86963 3.25195 9.97559 4.48242 9.97559 5.96191C9.97559 7.53662 8.87695 8.73779 7.46338 8.72314Z" fill="#ffffff" fill-opacity="0.85"/>  </g> </svg>